<svg xmlns="http://www.w3.org/2000/svg" viewBox="0 0 200 200" role="img" aria-label="Custorian">
  <rect x="15" y="15" width="10" height="10" fill="#8C8E9B"/>
  <rect x="47" y="15" width="10" height="10" fill="#8C8E9B"/>
  <rect x="79" y="15" width="10" height="10" fill="#8C8E9B"/>
  <rect x="111" y="15" width="10" height="10" fill="#8C8E9B"/>
  <rect x="143" y="15" width="10" height="10" fill="#8C8E9B"/>
  <rect x="175" y="15" width="10" height="10" fill="#8C8E9B"/>
  <rect x="15" y="47" width="10" height="10" fill="#8C8E9B"/>
  <rect x="47" y="47" width="10" height="10" fill="#8C8E9B"/>
  <rect x="79" y="47" width="10" height="10" fill="#8C8E9B"/>
  <rect x="111" y="47" width="10" height="10" fill="#8C8E9B"/>
  <rect x="143" y="47" width="10" height="10" fill="#8C8E9B"/>
  <rect x="175" y="47" width="10" height="10" fill="#8C8E9B"/>
  <rect x="15" y="79" width="10" height="10" fill="#8C8E9B"/>
  <rect x="47" y="79" width="10" height="10" fill="#8C8E9B"/>
  <rect x="143" y="79" width="10" height="10" fill="#8C8E9B"/>
  <rect x="175" y="79" width="10" height="10" fill="#8C8E9B"/>
  <rect x="15" y="111" width="10" height="10" fill="#8C8E9B"/>
  <rect x="47" y="111" width="10" height="10" fill="#8C8E9B"/>
  <rect x="143" y="111" width="10" height="10" fill="#8C8E9B"/>
  <rect x="175" y="111" width="10" height="10" fill="#8C8E9B"/>
  <rect x="15" y="143" width="10" height="10" fill="#8C8E9B"/>
  <rect x="47" y="143" width="10" height="10" fill="#8C8E9B"/>
  <rect x="79" y="143" width="10" height="10" fill="#8C8E9B"/>
  <rect x="111" y="143" width="10" height="10" fill="#8C8E9B"/>
  <rect x="143" y="143" width="10" height="10" fill="#8C8E9B"/>
  <rect x="175" y="143" width="10" height="10" fill="#8C8E9B"/>
  <rect x="15" y="175" width="10" height="10" fill="#8C8E9B"/>
  <rect x="47" y="175" width="10" height="10" fill="#8C8E9B"/>
  <rect x="79" y="175" width="10" height="10" fill="#8C8E9B"/>
  <rect x="111" y="175" width="10" height="10" fill="#8C8E9B"/>
  <rect x="143" y="175" width="10" height="10" fill="#8C8E9B"/>
  <rect x="175" y="175" width="10" height="10" fill="#8C8E9B"/>
  <rect x="71" y="71" width="26" height="26" fill="#7C3AED"/>
  <rect x="103" y="71" width="26" height="26" fill="#7C3AED"/>
  <rect x="71" y="103" width="26" height="26" fill="#7C3AED"/>
  <rect x="103" y="103" width="26" height="26" fill="#7C3AED"/>
</svg>
